<svg width="24" height="24" viewBox="0 0 24 24" fill="none" xmlns="http://www.w3.org/2000/svg">
<path d="M23.3094 14.5478C23.4824 13.7674 23.5745 12.9574 23.5745 12.126C23.5745 5.89264 18.4496 0.83928 12.1276 0.83928C11.4602 0.83928 10.8063 0.89616 10.17 1.0044C9.14699 0.36888 7.93663 0 6.63832 0C2.97203 0 0 2.9308 0 6.54528C0 7.7536 0.333381 8.88448 0.912436 9.85608C0.760634 10.5894 0.680879 11.3483 0.680879 12.1259C0.680879 18.3593 5.80572 23.4126 12.1276 23.4126C12.8437 23.4126 13.5441 23.3473 14.2236 23.2233C15.1581 23.7185 16.2267 24 17.3618 24C21.0281 24 24 21.0695 24 17.4547C24 16.4102 23.7507 15.4238 23.3094 14.5478ZM17.9984 17.5198C17.4689 18.2587 16.6865 18.8442 15.6728 19.2598C14.6689 19.6712 13.4655 19.8798 12.0957 19.8798C10.4516 19.8798 9.07324 19.5947 7.9974 19.032C7.22833 18.6223 6.59411 18.0675 6.11274 17.383C5.6265 16.6914 5.37985 16.0051 5.37985 15.3434C5.37985 14.9298 5.5405 14.5713 5.85741 14.2778C6.17099 13.987 6.57285 13.8396 7.05203 13.8396C7.44537 13.8396 7.78459 13.9561 8.06044 14.1858C8.32389 14.406 8.55001 14.7318 8.73167 15.1525C8.9345 15.6106 9.15568 15.9974 9.38926 16.302C9.61376 16.595 9.93676 16.8414 10.3492 17.0336C10.7642 17.2274 11.3237 17.3255 12.0118 17.3255C12.958 17.3255 13.7339 17.1263 14.3175 16.7334C14.8875 16.3496 15.1646 15.889 15.1646 15.325C15.1646 14.8794 15.02 14.5293 14.7225 14.2545C14.411 13.9672 14.0001 13.7436 13.5011 13.5902C12.9808 13.4303 12.2746 13.2578 11.401 13.0775C10.2176 12.8276 9.21158 12.5311 8.41038 12.196C8.40729 12.1948 8.40413 12.1935 8.40105 12.1922C7.58021 11.8479 6.91864 11.3706 6.43468 10.7733C5.94308 10.1667 5.694 9.40576 5.694 8.51128C5.694 7.65864 5.9555 6.89008 6.47127 6.22712C6.98314 5.5688 7.73071 5.0572 8.69313 4.70616C9.64313 4.35976 10.7732 4.18424 12.0518 4.18424C13.0741 4.18424 13.9729 4.30064 14.723 4.53064C15.4775 4.76232 16.1136 5.0752 16.6134 5.46016C17.1168 5.848 17.4912 6.26296 17.7265 6.69392C17.964 7.1292 18.0844 7.5624 18.0844 7.98144C18.0844 8.38472 17.9265 8.7512 17.6149 9.07064C17.3015 9.39192 16.9059 9.55504 16.4393 9.55504C16.0153 9.55504 15.6836 9.45304 15.4533 9.25192C15.239 9.0652 15.0169 8.77408 14.7702 8.3552C14.4847 7.82048 14.1393 7.39896 13.743 7.10192C13.3584 6.81344 12.7154 6.66696 11.8319 6.66696C11.0114 6.66696 10.344 6.82936 9.84856 7.14968C9.37109 7.45832 9.13912 7.81224 9.13912 8.23152C9.13912 8.48872 9.21377 8.7036 9.36736 8.88856C9.53003 9.08448 9.75948 9.25656 10.0495 9.3996C10.3504 9.54872 10.6604 9.6672 10.971 9.75176C11.2891 9.8388 11.8229 9.96776 12.5549 10.1345C13.3261 10.2978 14.0444 10.4776 14.6983 10.6701C14.8296 10.7087 14.9595 10.7478 15.0854 10.7875C15.8476 11.0281 16.5064 11.3248 17.0435 11.6693C17.5919 12.0214 18.026 12.4735 18.3341 13.0133C18.6429 13.555 18.7995 14.2238 18.7995 15.0008C18.7993 15.9308 18.5298 16.7782 17.9984 17.5198Z" fill="white"/>
</svg>
