<svg width="40" height="40" viewBox="0 0 40 40" fill="none" xmlns="http://www.w3.org/2000/svg">
<path d="M19.9975 24.0038C22.2041 24.0038 24.003 22.2081 24.003 20C24.003 19.1283 23.7178 18.3235 23.2457 17.6661C22.5182 16.6575 21.3356 15.9961 19.9999 15.9961C18.6634 15.9961 17.4816 16.6567 16.7525 17.6653C16.2788 18.3227 15.996 19.1275 15.9952 19.9992C15.9928 22.2073 17.7901 24.0038 19.9975 24.0038Z" fill="white"/>
<path d="M28.7408 15.0998V11.7436V11.2441L28.2389 11.2458L24.8844 11.2562L24.8973 15.1127L28.7408 15.0998Z" fill="white"/>
<path d="M20 0C8.97205 0 0 8.97205 0 20C0 31.0271 8.97205 40 20 40C31.0271 40 40 31.0271 40 20C40 8.97205 31.0288 0 20 0ZM31.3744 17.6662V26.979C31.3744 29.4047 29.4022 31.376 26.9782 31.376H13.0218C10.597 31.376 8.62563 29.4047 8.62563 26.979V17.6662L8.62563 13.0226C8.62563 10.5978 10.597 8.62644 13.0218 8.62644L26.9774 8.62644C29.4022 8.62644 31.3744 10.5978 31.3744 13.0226V17.6662Z" fill="white"/>
<path d="M26.2229 20.0018C26.2229 23.4313 23.4323 26.2235 20.0012 26.2235C16.5702 26.2235 13.7803 23.4313 13.7803 20.0018C13.7803 19.1769 13.9447 18.3882 14.2379 17.668H10.8423L10.8423 26.9808C10.8423 28.1844 11.8195 29.1591 13.0223 29.1591H26.9778C28.179 29.1591 29.1578 28.1844 29.1578 26.9808V17.668H25.7605C26.0562 18.3882 26.2229 19.1769 26.2229 20.0018Z" fill="white"/>
</svg>
