<svg width="16" height="17" viewBox="0 0 16 17" fill="none" xmlns="http://www.w3.org/2000/svg">
<g clip-path="url(#clip0)">
<path d="M9.82188 6.22703L10.9107 6.26697L10.6566 13.2049L9.56782 13.1652L9.82188 6.22703Z" fill="black" stroke="white" stroke-width="0.1"/>
<path d="M7.52392 13.1852V6.24702H8.61345V13.1852H7.52392Z" fill="black" stroke="white" stroke-width="0.1"/>
<path d="M5.22594 6.26675L6.31477 6.22679L6.56883 13.165L5.48004 13.2049L5.22594 6.26675Z" fill="black" stroke="white" stroke-width="0.1"/>
<path d="M2.23026 4.4024H1.04075V3.31288H15.0962V4.4024H13.8867H13.8409L13.8369 4.44802L12.8536 15.6222L12.8535 15.6222C12.829 15.9035 12.5934 16.1194 12.311 16.1194H3.80597C3.52362 16.1194 3.28808 15.9036 3.26339 15.6224L3.26339 15.6224L2.28006 4.44802L2.27605 4.4024H2.23026ZM11.7662 15.0298H11.812L11.816 14.9842L12.7425 4.45679L12.7472 4.4024H12.6926H3.42435H3.36976L3.37454 4.45679L4.3008 14.9842L4.30481 15.0298H4.35061H11.7662Z" fill="black" stroke="white" stroke-width="0.1"/>
<path d="M6.32356 2.12256H6.27356V2.17256V3.80775H5.18403V1.9743C5.18403 1.45532 5.60632 1.03303 6.1253 1.03303H10.0111C10.5301 1.03303 10.9524 1.45532 10.9524 1.9743V3.80775H9.86287V2.17256V2.12256H9.81287H6.32356Z" fill="black" stroke="white" stroke-width="0.1"/>
</g>
<defs>
<clipPath id="clip0">
<rect width="15.1864" height="15.1864" fill="white" transform="translate(0.475113 0.983032)"/>
</clipPath>
</defs>
</svg>
