<svg width="18" height="17" viewBox="0 0 18 17" fill="none" xmlns="http://www.w3.org/2000/svg">
<path d="M17.4843 7.79161C17.1978 7.79161 16.9686 8.02081 16.9686 8.30732V12.9983C16.9686 14.2742 15.9295 15.3094 14.6575 15.3094H3.34253C2.06664 15.3094 1.03141 14.2704 1.03141 12.9983V8.23091C1.03141 7.94441 0.802207 7.71521 0.515705 7.71521C0.229202 7.71521 0 7.94441 0 8.23091V12.9983C0 14.8434 1.50127 16.3408 3.34253 16.3408H14.6575C16.5025 16.3408 18 14.8396 18 12.9983V8.30732C18 8.02463 17.7708 7.79161 17.4843 7.79161Z" fill="black"/>
<path d="M8.63717 12.246C8.73649 12.3453 8.8702 12.3988 9.00008 12.3988C9.12996 12.3988 9.26366 12.3491 9.36298 12.246L12.6406 8.96842C12.843 8.76596 12.843 8.44125 12.6406 8.23879C12.4381 8.03633 12.1134 8.03633 11.9109 8.23879L9.51578 10.6378V1.1747C9.51578 0.888199 9.28658 0.658997 9.00008 0.658997C8.71357 0.658997 8.48437 0.888199 8.48437 1.1747V10.6378L6.08539 8.23879C5.88293 8.03633 5.55823 8.03633 5.35576 8.23879C5.1533 8.44125 5.1533 8.76596 5.35576 8.96842L8.63717 12.246Z" fill="black"/>
</svg>
