<svg width="20" height="19" viewBox="0 0 20 19" fill="none" xmlns="http://www.w3.org/2000/svg">
<path d="M13.0156 10.3027C12.1226 10.9129 11.0731 11.2385 9.9997 11.2385C8.5604 11.2385 7.17946 10.6537 6.16084 9.61194C5.14213 8.57006 4.56934 7.15637 4.56934 5.68174C4.56934 4.5821 4.88818 3.50738 5.48523 2.5935C6.08226 1.67965 6.93056 0.967824 7.92251 0.547597C8.91444 0.127383 10.0057 0.0174824 11.0586 0.231666C12.1114 0.445854 13.0789 0.974614 13.8386 1.75153C14.5982 2.52848 15.1159 3.51871 15.3256 4.59715C15.5354 5.6756 15.4277 6.79341 15.0163 7.80912C14.605 8.8248 13.9086 9.69247 13.0156 10.3027ZM12.2307 2.2716C11.5706 1.82049 10.7942 1.57952 9.9997 1.57952C8.93427 1.57952 7.91305 2.01242 7.16056 2.78203C6.40815 3.55155 5.98594 4.59466 5.98594 5.68174C5.98594 6.49246 6.22099 7.2852 6.66167 7.95973C7.10237 8.63428 7.72905 9.16047 8.46278 9.4713C9.19654 9.78215 10.0041 9.86353 10.7833 9.70502C11.5624 9.54652 12.2777 9.15535 12.8388 8.58144C13.4 8.00756 13.7818 7.27673 13.9364 6.48152C14.0911 5.68631 14.0117 4.86203 13.7083 4.1128C13.4048 3.36354 12.8908 2.72269 12.2307 2.2716Z" fill="white" stroke="white" stroke-width="0.25"/>
<path d="M19.5567 16.7224L19.5572 16.7228C19.684 16.8088 19.7808 16.9346 19.8328 17.0821C19.8847 17.2295 19.8889 17.3903 19.8446 17.5404C19.8003 17.6905 19.7101 17.8215 19.5878 17.9143C19.4656 18.0071 19.3178 18.0569 19.1663 18.0568L19.1654 18.0568C19.027 18.0577 18.8913 18.016 18.776 17.9367L18.7758 17.9366C16.1796 16.1583 13.1251 15.2087 9.99991 15.2087C6.8748 15.2087 3.82036 16.1583 1.22423 17.9365C1.06786 18.0426 0.877158 18.0806 0.693862 18.0428C0.510424 18.0049 0.348392 17.8939 0.243989 17.733C0.139524 17.5721 0.101627 17.3749 0.139127 17.185C0.157682 17.091 0.194131 17.0018 0.246277 16.9225C0.298419 16.8432 0.365203 16.7753 0.442698 16.7227L0.443095 16.7224C3.27101 14.786 6.59725 13.7524 9.99991 13.7524C13.4026 13.7524 16.7288 14.786 19.5567 16.7224Z" fill="white" stroke="white" stroke-width="0.25"/>
</svg>
