<svg width="20" height="19" viewBox="0 0 20 19" fill="none" xmlns="http://www.w3.org/2000/svg">
<path d="M13.0157 10.3027C12.1227 10.9129 11.0732 11.2385 9.99982 11.2385C8.56052 11.2385 7.17958 10.6537 6.16096 9.61194C5.14225 8.57006 4.56946 7.15637 4.56946 5.68174C4.56946 4.5821 4.8883 3.50738 5.48535 2.5935C6.08239 1.67965 6.93068 0.967824 7.92263 0.547597C8.91456 0.127383 10.0059 0.0174824 11.0587 0.231666C12.1115 0.445854 13.079 0.974614 13.8387 1.75153C14.5983 2.52848 15.116 3.51871 15.3257 4.59715C15.5355 5.6756 15.4278 6.79341 15.0164 7.80912C14.6051 8.8248 13.9087 9.69247 13.0157 10.3027ZM12.2308 2.2716C11.5707 1.82049 10.7943 1.57952 9.99982 1.57952C8.93439 1.57952 7.91318 2.01242 7.16068 2.78203C6.40828 3.55155 5.98607 4.59466 5.98607 5.68174C5.98607 6.49246 6.22111 7.2852 6.66179 7.95973C7.10249 8.63428 7.72917 9.16047 8.4629 9.4713C9.19666 9.78215 10.0042 9.86353 10.7834 9.70502C11.5625 9.54652 12.2778 9.15535 12.839 8.58144C13.4001 8.00756 13.7819 7.27673 13.9366 6.48152C14.0912 5.68631 14.0119 4.86203 13.7084 4.1128C13.405 3.36354 12.8909 2.72269 12.2308 2.2716Z" fill="url(#paint0_linear)" stroke="url(#paint1_linear)" stroke-width="0.25"/>
<path d="M19.5567 16.7223L19.5572 16.7226C19.684 16.8086 19.7808 16.9345 19.8328 17.0819C19.8847 17.2294 19.8889 17.3902 19.8446 17.5403C19.8003 17.6904 19.7101 17.8214 19.5878 17.9142C19.4656 18.0069 19.3178 18.0568 19.1663 18.0567L19.1654 18.0567C19.027 18.0576 18.8913 18.0159 18.776 17.9366L18.7758 17.9365C16.1796 16.1582 13.1251 15.2086 9.99991 15.2086C6.8748 15.2086 3.82036 16.1581 1.22423 17.9364C1.06786 18.0425 0.877158 18.0805 0.693862 18.0426C0.510424 18.0048 0.348392 17.8937 0.243989 17.7329C0.139524 17.572 0.101627 17.3748 0.139127 17.1849C0.157682 17.0909 0.194131 17.0017 0.246277 16.9224C0.298419 16.8431 0.365203 16.7752 0.442698 16.7226L0.443095 16.7223C3.27101 14.7859 6.59725 13.7523 9.99991 13.7523C13.4026 13.7523 16.7288 14.7859 19.5567 16.7223Z" fill="url(#paint2_linear)" stroke="url(#paint3_linear)" stroke-width="0.25"/>
<defs>
<linearGradient id="paint0_linear" x1="0.529457" y1="14.8029" x2="23.2469" y2="4.79924" gradientUnits="userSpaceOnUse">
<stop offset="0.114351" stop-color="#69FFAE"/>
<stop offset="0.509091" stop-color="#69C9FF"/>
<stop offset="0.88702" stop-color="#9069FF"/>
</linearGradient>
<linearGradient id="paint1_linear" x1="0.529457" y1="14.8029" x2="23.2469" y2="4.79924" gradientUnits="userSpaceOnUse">
<stop offset="0.114351" stop-color="#69FFAE"/>
<stop offset="0.509091" stop-color="#69C9FF"/>
<stop offset="0.88702" stop-color="#9069FF"/>
</linearGradient>
<linearGradient id="paint2_linear" x1="-7.04726" y1="19.5605" x2="2.89408" y2="-0.0998744" gradientUnits="userSpaceOnUse">
<stop offset="0.114351" stop-color="#69FFAE"/>
<stop offset="0.509091" stop-color="#69C9FF"/>
<stop offset="0.88702" stop-color="#9069FF"/>
</linearGradient>
<linearGradient id="paint3_linear" x1="-7.04726" y1="19.5605" x2="2.89408" y2="-0.0998744" gradientUnits="userSpaceOnUse">
<stop offset="0.114351" stop-color="#69FFAE"/>
<stop offset="0.509091" stop-color="#69C9FF"/>
<stop offset="0.88702" stop-color="#9069FF"/>
</linearGradient>
</defs>
</svg>
