<svg width="40" height="40" viewBox="0 0 40 40" fill="none" xmlns="http://www.w3.org/2000/svg">
<path d="M19.4062 16.4781C17.5493 13.1776 15.5643 10.4884 15.4225 10.2959C12.4305 11.7097 10.1981 14.4657 9.50049 17.7889C9.78326 17.7937 14.2544 17.8469 19.4062 16.4781Z" fill="white"/>
<path d="M17.4301 9.58203C17.4188 9.58686 17.4075 9.58928 17.3962 9.5917C17.4164 9.58767 17.4285 9.58445 17.4285 9.58445L17.4301 9.58203Z" fill="white"/>
<path d="M27.0861 11.9487C25.1954 10.2843 22.7173 9.27246 20 9.27246C19.1283 9.27246 18.2824 9.3788 17.4712 9.57456C17.6323 9.78724 19.6471 12.4643 21.4823 15.8349C25.5313 14.3156 27.0603 11.9906 27.0861 11.9487Z" fill="white"/>
<path d="M21.827 21.756C15.4917 23.9633 13.427 28.4159 13.4084 28.4546C15.2275 29.8757 17.513 30.7304 19.9999 30.7304C21.4871 30.7304 22.9017 30.4259 24.1891 29.8781C24.0304 28.9404 23.4052 25.6551 21.8963 21.7334C21.873 21.7398 21.8496 21.7471 21.827 21.756Z" fill="white"/>
<path d="M20.7428 20.0837C20.883 20.0377 21.0248 19.995 21.1642 19.9556C20.8967 19.3441 20.6027 18.7335 20.2941 18.1309C14.7709 19.7848 9.46837 19.6631 9.27986 19.6599C9.27583 19.7727 9.271 19.8839 9.271 19.9983C9.271 22.755 10.311 25.2677 12.0189 27.169L12.0149 27.1625C12.0157 27.1657 14.9521 21.9551 20.7428 20.0837Z" fill="white"/>
<path d="M20 0C8.97204 0 0 8.97204 0 20C0 31.0271 8.97204 40 20 40C31.0271 40 40 31.0271 40 20C40 8.97204 31.0288 0 20 0ZM32.3081 22.532C32.1437 23.3392 31.8956 24.1328 31.5766 24.8933C31.26 25.6376 30.8717 26.3554 30.4181 27.0273C29.9686 27.6911 29.4522 28.3179 28.8866 28.8866C28.3187 29.4538 27.6943 29.9694 27.0273 30.4181C26.3554 30.8717 25.636 31.2616 24.8933 31.5766C24.1352 31.8964 23.3392 32.1437 22.532 32.3097C21.7055 32.4796 20.8531 32.5634 20.0016 32.5634C19.1493 32.5634 18.2994 32.4796 17.4712 32.3097C16.664 32.1437 15.8688 31.8964 15.11 31.5766C14.3648 31.2608 13.647 30.8725 12.9751 30.4181C12.3105 29.967 11.6845 29.4538 11.1174 28.8866C10.5486 28.3179 10.033 27.6943 9.5843 27.0273C9.13075 26.3554 8.74083 25.6352 8.42584 24.8933C8.10602 24.1352 7.85789 23.3392 7.69274 22.532C7.52356 21.7063 7.43817 20.8531 7.43817 19.9992C7.43817 19.1477 7.52356 18.2969 7.69274 17.4704C7.85789 16.6632 8.10521 15.8688 8.42665 15.1084C8.74164 14.3632 9.13075 13.6462 9.5835 12.9759C10.0338 12.3113 10.5486 11.6845 11.1166 11.1174C11.6845 10.5486 12.3089 10.033 12.9751 9.5835C13.647 9.12994 14.3656 8.74083 15.1092 8.42504C15.868 8.10602 16.664 7.85708 17.4704 7.69355C18.2986 7.52356 19.1493 7.43736 20.0008 7.43736C20.8531 7.43736 21.7039 7.52356 22.532 7.69355C23.3392 7.85708 24.1328 8.10521 24.8933 8.42504C25.6392 8.74083 26.3554 9.12833 27.0273 9.5835C27.6911 10.0338 28.3187 10.5494 28.8866 11.1174C29.4538 11.6853 29.9702 12.3105 30.4181 12.9759C30.8717 13.647 31.2616 14.3648 31.5766 15.1084C31.8956 15.868 32.1445 16.6632 32.3089 17.4704C32.4788 18.2961 32.5626 19.1477 32.5626 19.9992C32.5626 20.8531 32.4772 21.703 32.3081 22.532Z" fill="white"/>
<path d="M23.9072 21.2357C25.3154 25.1027 25.8866 28.2518 25.9954 28.9003C28.4057 27.2722 30.116 24.6934 30.5946 21.7038C30.3722 21.6305 27.3705 20.6831 23.9072 21.2357Z" fill="white"/>
<path d="M22.3064 17.4313C22.5577 17.9428 22.7962 18.4624 23.021 18.9877C23.1015 19.173 23.1756 19.3583 23.2522 19.542C26.9386 19.0795 30.5703 19.861 30.7234 19.894C30.7008 17.3475 29.7889 15.0128 28.2856 13.1865C28.2671 13.2147 26.5455 15.7024 22.3064 17.4313Z" fill="white"/>
</svg>
