<svg width="40" height="40" viewBox="0 0 40 40" fill="none" xmlns="http://www.w3.org/2000/svg">
<path d="M16.8324 16.6644C16.8324 15.1338 15.7908 15.1338 15.7908 15.1338H15.2389H11.5058H11.5042V18.4191H15.5249C16.2202 18.4191 16.8324 18.1975 16.8324 16.6644Z" fill="white"/>
<path d="M26.7631 18.4189C24.4905 18.4189 24.1731 20.6859 24.1731 20.6859H29.0083C29.0083 20.6875 29.0382 18.4189 26.7631 18.4189Z" fill="white"/>
<path d="M15.7908 20.6875H11.5066V24.6237H15.3018C15.3663 24.6237 15.4613 24.6269 15.5749 24.6237C16.1848 24.6084 17.344 24.4344 17.344 22.7112C17.344 20.6682 15.7908 20.6875 15.7908 20.6875Z" fill="white"/>
<path d="M20 0C8.97205 0 0 8.97205 0 20C0 31.0271 8.97205 40 20 40C31.0271 40 40 31.0271 40 20C40 8.97205 31.0288 0 20 0ZM23.539 13.3852H29.6125V15.1986H23.539V13.3852ZM20.4681 22.8945C20.4681 27.3874 15.7907 27.2408 15.7907 27.2408H11.5065H11.3808H8.13099V12.5183H11.3808H11.5065H15.7907C18.1197 12.5183 19.9573 13.8049 19.9573 16.4392C19.9573 19.0727 17.7113 19.2403 17.7113 19.2403C20.6719 19.2395 20.4681 22.8945 20.4681 22.8945ZM31.8311 22.6529H24.2012C24.2012 25.3887 26.7929 25.2163 26.7929 25.2163C29.2387 25.2163 29.1533 23.6325 29.1533 23.6325H31.7466C31.7466 27.8361 26.7083 27.5469 26.7083 27.5469C20.6638 27.5469 21.0521 21.9198 21.0521 21.9198C21.0521 21.9198 21.0465 16.2628 26.7083 16.2628C32.6666 16.2628 31.8295 22.6529 31.8311 22.6529Z" fill="white"/>
</svg>
