<svg width="214" height="123" viewBox="0 0 214 123" fill="none" xmlns="http://www.w3.org/2000/svg">
<g opacity="0.1">
<path d="M34.3159 20.1694C38.6956 17.5184 44.373 9.11892 47.4377 -3.54141e-05C39.7762 3.45097 33.4402 9.09184 34.3159 20.1694Z" fill="black"/>
<path d="M29.907 34.7042C31.5292 30.3256 32.9171 18.8451 30.7776 9.46579C26.3394 16.5374 23.1942 25.9443 29.907 34.7042Z" fill="black"/>
<path d="M28.3945 50.3873C28.5528 45.5777 26.1666 33.9017 21.017 25.4299C18.9837 33.7902 18.976 44.012 28.3945 50.3873Z" fill="black"/>
<path d="M27.3101 66.9687C27.511 62.1608 24.9752 50.3302 16.471 42.7404C14.3637 51.0824 17.8137 63.4958 27.3101 66.9687Z" fill="black"/>
<path d="M38.0117 99.0729C35.6332 93.2973 30.0858 87.627 16.9951 81.6576C19.8277 90.4241 29.8773 101.572 38.0117 99.0729Z" fill="black"/>
<path d="M31.5495 84.9076C30.5096 78.7485 26.4654 71.504 14.9094 63.1189C15.7293 72.2952 23.0635 85.5423 31.5495 84.9076Z" fill="black"/>
<path d="M47.65 110.376C44.7846 106.51 35.0957 99.1431 23.896 98.3389C28.2064 106.481 40.0724 114.248 47.65 110.376Z" fill="black"/>
<path d="M30.3332 35.3234C34.1406 33.4315 39.7175 27.2183 43.6418 16.4853C35.6007 19.6502 31.5013 24.2984 30.3332 35.3234Z" fill="black"/>
<path d="M28.1871 49.3158C31.9506 47.3378 37.3848 40.9995 41.0642 30.1801C33.0971 33.5269 29.1044 38.2671 28.1871 49.3158Z" fill="black"/>
<path d="M27.858 66.8901C32.2183 64.2555 35.7743 55.6031 37.6054 44.5313C29.2304 49.4674 26.6605 55.8682 27.858 66.8901Z" fill="black"/>
<path d="M38.6824 99.1462C40.993 91.6474 41.0896 85.3825 37.9436 75.1556C33.6333 82.7385 32.8329 89.7282 38.6824 99.1462Z" fill="black"/>
<path d="M31.8948 85.6721C35.3182 78.6115 36.3658 72.4341 34.8107 61.8479C29.398 68.6876 27.5445 75.4745 31.8948 85.6721Z" fill="black"/>
<path d="M47.6181 110.401C50.0888 102.911 47.5766 95.9482 44.6755 86.3487C39.9565 94.3005 40.66 101.332 47.6181 110.401Z" fill="black"/>
<path d="M55.633 117.304C25.8869 93.9858 20.4101 59.7952 34.9874 17.6993" stroke="black" stroke-width="2"/>
<path d="M179.574 20.1694C175.194 17.5184 169.517 9.11892 166.452 -3.54141e-05C174.114 3.45097 180.45 9.09184 179.574 20.1694Z" fill="black"/>
<path d="M183.983 34.7042C182.361 30.3256 180.973 18.8451 183.112 9.46579C187.551 16.5374 190.696 25.9443 183.983 34.7042Z" fill="black"/>
<path d="M185.495 50.3873C185.337 45.5777 187.723 33.9017 192.873 25.4299C194.906 33.7902 194.914 44.012 185.495 50.3873Z" fill="black"/>
<path d="M186.58 66.9687C186.379 62.1608 188.915 50.3302 197.419 42.7404C199.526 51.0824 196.076 63.4958 186.58 66.9687Z" fill="black"/>
<path d="M175.878 99.0729C178.257 93.2973 183.804 87.627 196.895 81.6576C194.062 90.4241 184.013 101.572 175.878 99.0729Z" fill="black"/>
<path d="M182.341 84.9076C183.38 78.7485 187.425 71.504 198.981 63.1189C198.161 72.2952 190.826 85.5423 182.341 84.9076Z" fill="black"/>
<path d="M166.24 110.376C169.105 106.51 178.794 99.1431 189.994 98.3389C185.684 106.481 173.818 114.248 166.24 110.376Z" fill="black"/>
<path d="M183.557 35.3234C179.749 33.4315 174.173 27.2183 170.248 16.4853C178.289 19.6502 182.389 24.2984 183.557 35.3234Z" fill="black"/>
<path d="M185.703 49.3158C181.939 47.3378 176.505 40.9995 172.826 30.1801C180.793 33.5269 184.786 38.2671 185.703 49.3158Z" fill="black"/>
<path d="M186.032 66.8901C181.672 64.2555 178.116 55.6031 176.285 44.5313C184.66 49.4674 187.23 55.8682 186.032 66.8901Z" fill="black"/>
<path d="M175.208 99.1462C172.897 91.6474 172.8 85.3825 175.946 75.1556C180.257 82.7385 181.057 89.7282 175.208 99.1462Z" fill="black"/>
<path d="M181.995 85.6721C178.572 78.6115 177.524 72.4341 179.079 61.8479C184.492 68.6876 186.345 75.4745 181.995 85.6721Z" fill="black"/>
<path d="M166.272 110.401C163.801 102.911 166.313 95.9482 169.215 86.3487C173.934 94.3005 173.23 101.332 166.272 110.401Z" fill="black"/>
<path d="M158.257 117.304C188.003 93.9858 193.48 59.7952 178.903 17.6993" stroke="black" stroke-width="2"/>
</g>
</svg>
